<svg width="64" height="65" viewBox="0 0 64 65" fill="none" xmlns="http://www.w3.org/2000/svg">
<g clip-path="url(#clip0_6_168)">
<path d="M40.9871 43.0639C40.9058 43.3323 40.7295 43.561 40.4919 43.7063C40.2544 43.8517 39.9722 43.9035 39.6992 43.8519C39.4337 43.7696 39.2075 43.5914 39.0637 43.3513C38.9199 43.1111 38.8686 42.8259 38.9197 42.5499L40.2076 37.2966V26.333C40.2232 26.1557 40.1823 25.978 40.0908 25.826C39.9993 25.6739 39.8621 25.5554 39.6992 25.4878C39.5626 25.4332 39.4168 25.4061 39.2699 25.4079C39.1267 25.4058 38.9845 25.433 38.8519 25.4878C38.6946 25.5511 38.5603 25.6617 38.4674 25.8047C38.3744 25.9477 38.3272 26.1162 38.3322 26.2873V27.5093C38.3322 27.7955 38.2198 28.07 38.0195 28.2724C37.8193 28.4748 37.5478 28.5885 37.2646 28.5885C36.9815 28.5885 36.7099 28.4748 36.5097 28.2724C36.3095 28.07 36.197 27.7955 36.197 27.5093V24.7113C36.21 24.5329 36.1666 24.355 36.0733 24.2032C35.9799 24.0513 35.8413 23.9333 35.6773 23.8661C35.5407 23.8115 35.3949 23.7844 35.248 23.7862C35.1049 23.7859 34.9631 23.813 34.83 23.8661C34.6739 23.9298 34.5411 24.0409 34.45 24.1841C34.359 24.3273 34.3141 24.4955 34.3216 24.6656V27.5321C34.3052 27.8134 34.1866 28.0786 33.9885 28.2767C33.7903 28.4749 33.5268 28.592 33.2484 28.6056C33.1085 28.6072 32.9697 28.5804 32.8402 28.527C32.7107 28.4736 32.593 28.3946 32.4941 28.2946C32.3952 28.1946 32.317 28.0757 32.2642 27.9447C32.2113 27.8138 32.1849 27.6735 32.1864 27.5321V24.3001C32.1965 24.1179 32.151 23.9369 32.0561 23.7817C31.9611 23.6264 31.8213 23.5044 31.6554 23.4322C31.387 23.3241 31.0879 23.3241 30.8194 23.4322C30.6591 23.4956 30.5221 23.6075 30.427 23.7527C30.332 23.8978 30.2836 24.069 30.2885 24.243V27.5321C30.3038 27.6816 30.2879 27.8327 30.2417 27.9756C30.1956 28.1185 30.1204 28.25 30.0208 28.3616C29.9212 28.4732 29.7996 28.5625 29.6637 28.6236C29.5279 28.6846 29.3808 28.7162 29.2321 28.7162C29.0835 28.7162 28.9364 28.6846 28.8006 28.6236C28.6647 28.5625 28.5431 28.4732 28.4435 28.3616C28.3439 28.25 28.2686 28.1185 28.2225 27.9756C28.1764 27.8327 28.1605 27.6816 28.1758 27.5321V24.5742C28.1791 24.4006 28.13 24.23 28.0352 24.0852C27.9404 23.9404 27.8042 23.8282 27.6449 23.7634C27.5118 23.7102 27.3699 23.6831 27.2268 23.6834C27.0802 23.684 26.9348 23.7111 26.7975 23.7634C26.6336 23.8305 26.495 23.9485 26.4016 24.1004C26.3082 24.2523 26.2649 24.4302 26.2779 24.6085V34.3501C26.2779 34.6348 26.166 34.9079 25.9668 35.1092C25.7677 35.3105 25.4976 35.4236 25.2159 35.4236C24.9343 35.4236 24.6641 35.3105 24.465 35.1092C24.2658 34.9079 24.1539 34.6348 24.1539 34.3501V29.622C24.1581 29.4497 24.1107 29.2801 24.018 29.1355C23.9253 28.9908 23.7915 28.8778 23.6343 28.8112C23.4977 28.7566 23.3518 28.7294 23.205 28.7312C23.0619 28.7309 22.92 28.758 22.787 28.8112C22.623 28.8784 22.4844 28.9964 22.391 29.1482C22.2976 29.3001 22.2543 29.478 22.2673 29.6563V35.0582C22.2673 37.1709 22.3464 37.2737 23.397 38.6784L23.702 39.0896L26.018 42.1502C26.1651 42.3759 26.2225 42.6493 26.1789 42.9159C26.1353 43.1825 25.9939 43.4227 25.7828 43.5885C25.5717 43.7543 25.3065 43.8335 25.0402 43.8104C24.7739 43.7872 24.526 43.6634 24.346 43.4636L22.0187 40.4029L21.7137 40.0032C20.2111 38.0275 20.0982 37.8904 20.0982 35.0582V29.6563C20.0704 29.0288 20.2433 28.409 20.5913 27.8886C20.9392 27.3682 21.4437 26.9749 22.03 26.7669C22.4192 26.6136 22.8325 26.5324 23.2501 26.5271C23.5722 26.5262 23.8924 26.5763 24.1991 26.6756V24.6085C24.1727 23.9991 24.3377 23.3969 24.6705 22.8882C25.0033 22.3794 25.4869 21.9902 26.0519 21.7762C26.4328 21.6072 26.8448 21.5216 27.2607 21.525C27.6803 21.522 28.0959 21.6076 28.4809 21.7762C28.6851 21.8538 28.8787 21.9574 29.057 22.0846C29.3441 21.8135 29.677 21.5969 30.0399 21.445C30.4299 21.2958 30.8431 21.2185 31.26 21.2166C31.6734 21.2176 32.0831 21.295 32.4689 21.445C32.8654 21.5966 33.224 21.8344 33.5195 22.1417C33.6849 22.032 33.8633 21.9437 34.0505 21.879C34.434 21.7115 34.8473 21.6251 35.265 21.6251C35.6827 21.6251 36.096 21.7115 36.4795 21.879C36.846 22.0192 37.1798 22.2347 37.4598 22.5118C37.7398 22.789 37.9599 23.1218 38.1063 23.4893C38.4659 23.3439 38.8488 23.2665 39.236 23.2609C39.6543 23.2594 40.0689 23.3408 40.4562 23.5007C41.0201 23.7197 41.502 24.1117 41.8343 24.6217C42.1666 25.1317 42.3326 25.7341 42.3089 26.3444V37.4222C42.3202 37.5094 42.3202 37.5977 42.3089 37.6849L40.9871 43.0639Z" fill="#8B8785"/>
<path d="M13.1615 31.4836C13.3094 31.4681 13.4589 31.4842 13.6002 31.5308C13.7416 31.5774 13.8717 31.6535 13.9821 31.7542C14.0925 31.8548 14.1808 31.9778 14.2412 32.1151C14.3016 32.2525 14.3329 32.4011 14.3329 32.5514C14.3329 32.7017 14.3016 32.8503 14.2412 32.9877C14.1808 33.125 14.0925 33.248 13.9821 33.3486C13.8717 33.4493 13.7416 33.5254 13.6002 33.572C13.4589 33.6186 13.3094 33.6347 13.1615 33.6192H3.62648L5.3211 35.3323C5.4205 35.432 5.4995 35.5506 5.55358 35.6812C5.60766 35.8117 5.63576 35.9518 5.63628 36.0934C5.63681 36.235 5.60974 36.3753 5.55663 36.5063C5.50352 36.6373 5.42541 36.7564 5.32675 36.8569C5.22809 36.9574 5.11082 37.0372 4.98163 37.0919C4.85244 37.1466 4.71386 37.175 4.57381 37.1755C4.43376 37.176 4.29498 37.1487 4.16539 37.095C4.0358 37.0413 3.91794 36.9623 3.81854 36.8626L0.316335 33.3223C0.128978 33.1124 0.0252686 32.8398 0.0252686 32.5571C0.0252686 32.2744 0.128978 32.0018 0.316335 31.7919L3.81854 28.2516C3.91717 28.1518 4.03428 28.0727 4.16319 28.0186C4.2921 27.9646 4.43028 27.9368 4.56982 27.9368C4.70936 27.9368 4.84754 27.9646 4.97645 28.0186C5.10536 28.0727 5.22247 28.1518 5.3211 28.2516C5.50846 28.4615 5.61217 28.7341 5.61217 29.0168C5.61217 29.2995 5.50846 29.5721 5.3211 29.782L3.62648 31.495L13.1615 31.4836Z" fill="#8B8785"/>
<path d="M50.8385 33.6192C50.6906 33.6347 50.5411 33.6186 50.3997 33.572C50.2584 33.5254 50.1283 33.4493 50.0179 33.3486C49.9075 33.248 49.8192 33.125 49.7588 32.9877C49.6983 32.8503 49.6671 32.7017 49.6671 32.5514C49.6671 32.4011 49.6983 32.2525 49.7588 32.1151C49.8192 31.9778 49.9075 31.8548 50.0179 31.7542C50.1283 31.6535 50.2584 31.5774 50.3997 31.5308C50.5411 31.4842 50.6906 31.4681 50.8385 31.4836H60.3396L58.6676 29.7705C58.4802 29.5607 58.3765 29.2881 58.3765 29.0054C58.3765 28.7227 58.4802 28.4501 58.6676 28.2402C58.7662 28.1404 58.8833 28.0612 59.0122 28.0072C59.1411 27.9532 59.2793 27.9254 59.4189 27.9254C59.5584 27.9254 59.6966 27.9532 59.8255 28.0072C59.9544 28.0612 60.0715 28.1404 60.1701 28.2402L63.6724 31.7805C63.7742 31.8796 63.8552 31.9985 63.9105 32.1299C63.9658 32.2614 63.9944 32.4028 63.9944 32.5457C63.9944 32.6886 63.9658 32.83 63.9105 32.9615C63.8552 33.0929 63.7742 33.2118 63.6724 33.3109L60.1701 36.8512C59.9694 37.0526 59.6977 37.1652 59.4149 37.1641C59.132 37.163 58.8612 37.0484 58.6619 36.8455C58.4627 36.6426 58.3513 36.3679 58.3524 36.082C58.3535 35.7961 58.4668 35.5223 58.6676 35.3209L60.3396 33.6192H50.8385Z" fill="#8B8785"/>
<path d="M31.8701 62.0788C25.5904 62.1763 19.4507 60.2007 14.3822 56.4517C9.3137 52.7027 5.59305 47.385 3.78464 41.3051H1.27661C3.16438 48.0181 7.18021 53.9189 12.7072 58.101C18.2341 62.2831 24.9665 64.5152 31.8701 64.4543C38.7736 64.5152 45.506 62.2831 51.033 58.101C56.5599 53.9189 60.5758 48.0181 62.4636 41.3051H59.9555C58.1471 47.385 54.4265 52.7027 49.358 56.4517C44.2895 60.2007 38.1497 62.1763 31.8701 62.0788Z" fill="#8B8785"/>
<path d="M31.87 2.93255C37.9917 2.99314 43.9471 4.95369 48.9301 8.54879C53.9131 12.1439 57.683 17.1999 59.7295 23.0325H62.2715C58.2044 10.47 46.1274 0.5 31.87 0.5C17.6127 0.5 5.53571 10.47 1.46863 23.0325H4.01055C6.05708 17.1999 9.827 12.1439 14.81 8.54879C19.793 4.95369 25.7484 2.99314 31.87 2.93255Z" fill="#8B8785"/>
</g>
<defs>
<clipPath id="clip0_6_168">
<rect width="64" height="64" fill="white" transform="translate(0 0.5)"/>
</clipPath>
</defs>
</svg>
