<svg width="16" height="27" viewBox="0 0 16 27" fill="none" xmlns="http://www.w3.org/2000/svg">
<path fill-rule="evenodd" clip-rule="evenodd" d="M14.1427 0.166688C14.3166 0.166443 14.4889 0.200521 14.6496 0.266971C14.8104 0.333422 14.9564 0.430937 15.0794 0.553931C15.2024 0.676925 15.2999 0.822979 15.3664 0.983725C15.4328 1.14447 15.4669 1.31675 15.4667 1.49069V8.18829C15.4664 8.42511 15.4035 8.65765 15.2845 8.86238C15.1655 9.06711 14.9945 9.23676 14.7888 9.35415L12.2341 10.8139C10.9296 10.124 9.47576 9.76441 8 9.76669C6.52789 9.76449 5.07758 10.1224 3.77547 10.8091L1.2288 9.34776C1.02681 9.23173 0.859055 9.06441 0.742504 8.86273C0.625952 8.66105 0.564742 8.43216 0.565067 8.19922V1.50935C0.56556 1.15341 0.707179 0.812184 0.95887 0.560492C1.21056 0.3088 1.55179 0.167182 1.90773 0.166688H14.1427ZM3.2 3.10002C3.2 2.95857 3.25619 2.82292 3.35621 2.7229C3.45623 2.62288 3.59188 2.56669 3.73333 2.56669H12.2667C12.4081 2.56669 12.5438 2.62288 12.6438 2.7229C12.7438 2.82292 12.8 2.95857 12.8 3.10002C12.8 3.24147 12.7438 3.37713 12.6438 3.47715C12.5438 3.57716 12.4081 3.63336 12.2667 3.63336H3.73333C3.59188 3.63336 3.45623 3.57716 3.35621 3.47715C3.25619 3.37713 3.2 3.24147 3.2 3.10002ZM16 18.8334C16 23.2518 12.4184 26.8334 8 26.8334C3.5816 26.8334 0 23.2518 0 18.8334C0 14.415 3.5816 10.8334 8 10.8334C12.4184 10.8334 16 14.415 16 18.8334ZM7.4928 14.2611C7.65253 13.7699 8.34747 13.7699 8.5072 14.2611L9.25733 16.5696C9.29213 16.6767 9.35995 16.7701 9.45106 16.8363C9.54218 16.9025 9.65191 16.9381 9.76453 16.9382H12.1917C12.7083 16.9382 12.9232 17.5992 12.5053 17.903L10.5416 19.3296C10.4505 19.3958 10.3826 19.4891 10.3478 19.5963C10.313 19.7034 10.3129 19.8188 10.3477 19.9259L11.0979 22.2342C11.2576 22.7256 10.6952 23.1342 10.2771 22.8304L8.3136 21.4038C8.22246 21.3375 8.11268 21.3018 8 21.3018C7.88732 21.3018 7.77754 21.3375 7.6864 21.4038L5.72293 22.8304C5.3048 23.1344 4.7424 22.7256 4.90213 22.2342L5.65227 19.9259C5.68705 19.8188 5.68703 19.7034 5.65221 19.5963C5.61738 19.4891 5.54954 19.3958 5.4584 19.3296L3.49493 17.903C3.0768 17.599 3.29173 16.9382 3.80827 16.9382H6.23547C6.34809 16.9381 6.45782 16.9025 6.54894 16.8363C6.64005 16.7701 6.70787 16.6767 6.74267 16.5696L7.4928 14.2611Z" fill="white"/>
</svg>
