<svg width="33" height="33" viewBox="0 0 33 33" fill="none" xmlns="http://www.w3.org/2000/svg">
<path d="M29.4467 27.5534L25.6734 23.7934C27.7189 21.2662 28.7168 18.0505 28.4612 14.8093C28.2056 11.5682 26.7161 8.5486 24.2997 6.37333C21.8833 4.19806 18.7244 3.03293 15.4743 3.1182C12.2241 3.20347 9.13061 4.53264 6.83163 6.83163C4.53264 9.13061 3.20347 12.2241 3.1182 15.4743C3.03293 18.7244 4.19806 21.8833 6.37333 24.2997C8.5486 26.7161 11.5682 28.2056 14.8093 28.4612C18.0505 28.7168 21.2662 27.7189 23.7934 25.6734L27.5534 29.4467C27.6773 29.5717 27.8248 29.6709 27.9873 29.7385C28.1497 29.8062 28.324 29.8411 28.5 29.8411C28.676 29.8411 28.8503 29.8062 29.0128 29.7385C29.1753 29.6709 29.3227 29.5717 29.4467 29.4467C29.5717 29.3227 29.6709 29.1753 29.7385 29.0128C29.8062 28.8503 29.8411 28.676 29.8411 28.5C29.8411 28.324 29.8062 28.1497 29.7385 27.9873C29.6709 27.8248 29.5717 27.6773 29.4467 27.5534ZM5.83335 15.8334C5.83335 13.8555 6.41984 11.9221 7.51866 10.2777C8.61747 8.63316 10.1793 7.35143 12.0065 6.59456C13.8338 5.83768 15.8444 5.63965 17.7843 6.0255C19.7241 6.41135 21.5059 7.36376 22.9044 8.76228C24.3029 10.1608 25.2554 11.9426 25.6412 13.8825C26.0271 15.8223 25.829 17.8329 25.0721 19.6602C24.3153 21.4874 23.0335 23.0492 21.3891 24.1481C19.7446 25.2469 17.8112 25.8334 15.8334 25.8334C13.1812 25.8334 10.6376 24.7798 8.76228 22.9044C6.88692 21.0291 5.83335 18.4855 5.83335 15.8334Z" fill="white"/>
</svg>
